<?xml version="1.0" encoding="UTF-8" standalone="no"?>
<!-- Created with Inkscape (http://www.inkscape.org/) -->

<svg
   version="1.1"
   id="svg2"
   xml:space="preserve"
   width="1333.3333"
   height="1066.6667"
   viewBox="0 0 1333.3333 1066.6667"
   sodipodi:docname="New27012019-13.svg"
   inkscape:export-filename="/home/gabor/Github/nyitig/kremergaz/assets/pic/logo.png"
   inkscape:export-xdpi="362.53799"
   inkscape:export-ydpi="362.53799"
   inkscape:version="1.1.2 (0a00cf5339, 2022-02-04)"
   xmlns:inkscape="http://www.inkscape.org/namespaces/inkscape"
   xmlns:sodipodi="http://sodipodi.sourceforge.net/DTD/sodipodi-0.dtd"
   xmlns="http://www.w3.org/2000/svg"
   xmlns:svg="http://www.w3.org/2000/svg"><defs
     id="defs6"><clipPath
       clipPathUnits="userSpaceOnUse"
       id="clipPath54"><path
         d="m 4674.5,4579.91 c -24.04,40.35 -45.28,82.39 -63.4,125.75 -162.91,389.8 -69.53,830.12 282.91,1075.73 188.47,131.34 412.17,201.55 634.63,258.8 -94.17,-24.23 -197.82,-94.83 -279.95,-145.7 -88.73,-54.94 -173.16,-119.26 -240.56,-199.54 -155.07,-184.72 -174.49,-441.97 -116.84,-670.14 33.85,-133.97 220.01,-507.7 405.08,-344.88 82.03,72.16 23.36,143.41 -19.16,295.18 -103.12,368.04 117.25,431.98 275.65,439.51 -216.46,-67.14 -112.4,-396.42 38.71,-540.95 86.07,-82.33 187.27,-151.66 268.07,-239.01 69.14,-74.74 117.37,-178.95 150.74,-274.04 140,-398.9 -1.8,-836.22 -286.21,-1134.67 -58.71,-61.6 -122.02,-122.05 -191.64,-171.44 113.29,279.99 60.77,620.2 -131.7,852.98 -121.26,146.67 -285.79,253.63 -439.83,362.41 -115.77,81.76 -213.95,188.26 -286.5,310.01 z"
         id="path52" /></clipPath><radialGradient
       fx="0"
       fy="0"
       cx="0"
       cy="0"
       r="1"
       gradientUnits="userSpaceOnUse"
       gradientTransform="matrix(10,-2980,-2980,-10,5441.91,5990)"
       spreadMethod="pad"
       id="radialGradient60"><stop
         style="stop-opacity:1;stop-color:#ef9a11"
         offset="0"
         id="stop56" /><stop
         style="stop-opacity:1;stop-color:#ef4129"
         offset="1"
         id="stop58" /></radialGradient><clipPath
       clipPathUnits="userSpaceOnUse"
       id="clipPath70"><path
         d="m 4758.62,3110.25 c -0.76,-7.65 -3.55,-15.33 -8.85,-22.65 -9.35,-12.91 -24.25,-21.15 -39.85,-24.42 -53.8,-11.29 -113.2,24.42 -158.39,49 -142.66,77.6 -260.04,201.39 -328.72,348.67 -3.15,6.76 -1.02,14.84 4.98,19.29 5.23,3.9 11.99,4.24 17.47,1.18 42.14,-23.47 69.2,-65.99 103.58,-98.53 56.61,-53.56 120,-93.48 192.03,-122.66 67.39,-27.3 140.51,-50.68 195.47,-100.51 14.53,-13.16 24.09,-31.23 22.28,-49.37 z m 457.82,499.16 c -157.64,264.56 -461.75,393.99 -670.47,615.18 -167.82,177.85 -294.05,409.63 -297.94,658.74 -3.17,203.29 75.6,368.1 190.45,531.63 -31.15,-44.36 -105.3,-80.55 -145.53,-120.2 -48.78,-48.08 -93.01,-100.76 -132.06,-157.03 -153.81,-221.6 -209.59,-518.7 -222.81,-785.31 -17.19,-346.56 37.67,-737.92 220.16,-1038.68 105.51,-173.9 266.09,-328.05 457.1,-403.96 2.27,-0.9 4.54,-1.79 6.81,-2.68 428.73,-166.66 829.75,307.17 594.29,702.31 z"
         id="path68" /></clipPath><linearGradient
       x1="0"
       y1="0"
       x2="1"
       y2="0"
       gradientUnits="userSpaceOnUse"
       gradientTransform="matrix(-3715.19,3715.19,3715.19,3715.19,5516.29,3124.38)"
       spreadMethod="pad"
       id="linearGradient76"><stop
         style="stop-opacity:1;stop-color:#50a9e3"
         offset="0"
         id="stop72" /><stop
         style="stop-opacity:1;stop-color:#2c3a91"
         offset="1"
         id="stop74" /></linearGradient></defs><sodipodi:namedview
     id="namedview4"
     pagecolor="#ffffff"
     bordercolor="#666666"
     borderopacity="1.0"
     inkscape:pageshadow="2"
     inkscape:pageopacity="0.0"
     inkscape:pagecheckerboard="0"
     showgrid="false"
     inkscape:zoom="0.77999994"
     inkscape:cx="377.56413"
     inkscape:cy="533.9744"
     inkscape:window-width="1920"
     inkscape:window-height="1003"
     inkscape:window-x="0"
     inkscape:window-y="0"
     inkscape:window-maximized="1"
     inkscape:current-layer="g10" /><g
     id="g8"
     inkscape:groupmode="layer"
     inkscape:label="ink_ext_XXXXXX"
     transform="matrix(1.3333333,0,0,-1.3333333,0,1066.6667)"><g
       id="g10"
       transform="scale(0.1)"><g
         id="g48"><g
           id="g50"
           clip-path="url(#clipPath54)"><path
             d="m 4674.5,4579.91 c -24.04,40.35 -45.28,82.39 -63.4,125.75 -162.91,389.8 -69.53,830.12 282.91,1075.73 188.47,131.34 412.17,201.55 634.63,258.8 -94.17,-24.23 -197.82,-94.83 -279.95,-145.7 -88.73,-54.94 -173.16,-119.26 -240.56,-199.54 -155.07,-184.72 -174.49,-441.97 -116.84,-670.14 33.85,-133.97 220.01,-507.7 405.08,-344.88 82.03,72.16 23.36,143.41 -19.16,295.18 -103.12,368.04 117.25,431.98 275.65,439.51 -216.46,-67.14 -112.4,-396.42 38.71,-540.95 86.07,-82.33 187.27,-151.66 268.07,-239.01 69.14,-74.74 117.37,-178.95 150.74,-274.04 140,-398.9 -1.8,-836.22 -286.21,-1134.67 -58.71,-61.6 -122.02,-122.05 -191.64,-171.44 113.29,279.99 60.77,620.2 -131.7,852.98 -121.26,146.67 -285.79,253.63 -439.83,362.41 -115.77,81.76 -213.95,188.26 -286.5,310.01"
             style="fill:url(#radialGradient60);fill-opacity:1;fill-rule:nonzero;stroke:none"
             id="path62" /></g></g><g
         id="g64"><g
           id="g66"
           clip-path="url(#clipPath70)"><path
             d="m 4758.62,3110.25 c -0.76,-7.65 -3.55,-15.33 -8.85,-22.65 -9.35,-12.91 -24.25,-21.15 -39.85,-24.42 -53.8,-11.29 -113.2,24.42 -158.39,49 -142.66,77.6 -260.04,201.39 -328.72,348.67 -3.15,6.76 -1.02,14.84 4.98,19.29 5.23,3.9 11.99,4.24 17.47,1.18 42.14,-23.47 69.2,-65.99 103.58,-98.53 56.61,-53.56 120,-93.48 192.03,-122.66 67.39,-27.3 140.51,-50.68 195.47,-100.51 14.53,-13.16 24.09,-31.23 22.28,-49.37 z m 457.82,499.16 c -157.64,264.56 -461.75,393.99 -670.47,615.18 -167.82,177.85 -294.05,409.63 -297.94,658.74 -3.17,203.29 75.6,368.1 190.45,531.63 -31.15,-44.36 -105.3,-80.55 -145.53,-120.2 -48.78,-48.08 -93.01,-100.76 -132.06,-157.03 -153.81,-221.6 -209.59,-518.7 -222.81,-785.31 -17.19,-346.56 37.67,-737.92 220.16,-1038.68 105.51,-173.9 266.09,-328.05 457.1,-403.96 2.27,-0.9 4.54,-1.79 6.81,-2.68 428.73,-166.66 829.75,307.17 594.29,702.31"
             style="fill:url(#linearGradient76);fill-opacity:1;fill-rule:nonzero;stroke:none"
             id="path78" /></g></g><text
         xml:space="preserve"
         style="font-style:normal;font-variant:normal;font-weight:bold;font-stretch:normal;font-size:720px;line-height:1.25;font-family:sans-serif;-inkscape-font-specification:'sans-serif Bold';fill:#000000;fill-opacity:1;stroke:none;stroke-width:7.5"
         x="2610.5386"
         y="-2131.3755"
         id="text3597"
         transform="scale(1,-1)"><tspan
           sodipodi:role="line"
           id="tspan3595"
           style="font-style:normal;font-variant:normal;font-weight:bold;font-stretch:normal;font-size:720px;font-family:sans-serif;-inkscape-font-specification:'sans-serif Bold';fill:#000814;fill-opacity:1;stroke-width:7.5"
           x="2610.5386"
           y="-2131.3755">Krémer Gáz</tspan></text><text
         xml:space="preserve"
         style="font-style:normal;font-weight:normal;font-size:300px;line-height:1.25;font-family:sans-serif;fill:#000000;fill-opacity:1;stroke:none;stroke-width:7.5"
         x="3211.2166"
         y="-1471.49"
         id="text10379"
         transform="scale(1,-1)"><tspan
           sodipodi:role="line"
           id="tspan10377"
           style="fill:#000814;fill-opacity:1;stroke-width:7.5"
           x="3211.2166"
           y="-1471.49">Az otthon biztos melege</tspan></text></g></g></svg>
